<!DOCTYPE svg PUBLIC "-//W3C//DTD SVG 1.1//EN" "http://www.w3.org/Graphics/SVG/1.1/DTD/svg11.dtd">
<!-- Uploaded to: SVG Repo, www.svgrepo.com, Transformed by: SVG Repo Mixer Tools -->
<svg fill="#000000" version="1.1" id="Layer_1" xmlns="http://www.w3.org/2000/svg" xmlns:xlink="http://www.w3.org/1999/xlink" viewBox="-15.36 -15.36 542.72 542.72" xml:space="preserve" width="800px" height="800px" stroke="#000000" stroke-width="6.656000000000001">
<g id="SVGRepo_bgCarrier" stroke-width="0"/>
<g id="SVGRepo_tracerCarrier" stroke-linecap="round" stroke-linejoin="round"/>
<g id="SVGRepo_iconCarrier"> <g> <g> <path d="M437.019,74.981c-99.815-99.815-262.222-99.815-362.037,0C26.63,123.333,0,187.62,0,256 c0,68.38,26.63,132.667,74.981,181.019C124.889,486.926,190.444,511.88,256,511.88c65.555,0,131.111-24.954,181.019-74.861 C485.37,388.667,512,324.38,512,256C512,187.62,485.37,123.333,437.019,74.981z M423.611,423.611 c-92.426,92.407-242.796,92.407-335.222,0C43.62,378.843,18.963,319.315,18.963,256c0-63.315,24.657-122.845,69.426-167.611 C134.602,42.183,195.301,19.072,256,19.072c60.699,0,121.398,23.111,167.611,69.317C468.38,133.155,493.037,192.685,493.037,256 C493.037,319.315,468.38,378.843,423.611,423.611z"/> </g> </g> <g> <g> <rect x="146.976" y="100.412" transform="matrix(0.5547 -0.8321 0.8321 0.5547 -64.4372 201.9593)" width="18.961" height="121.534"/> </g> </g> <g> <g> <rect x="294.802" y="151.684" transform="matrix(0.832 -0.5548 0.5548 0.832 -29.6733 224.3435)" width="121.53" height="18.961"/> </g> </g> <g> <g> <path d="M379.259,303.407c-5.236,0-9.482,4.241-9.482,9.482c0,62.741-51.042,113.778-113.778,113.778 S142.222,375.63,142.222,312.889c0-5.241-4.245-9.482-9.482-9.482s-9.481,4.241-9.481,9.482 c0,73.192,59.546,132.741,132.741,132.741s132.741-59.548,132.741-132.741C388.741,307.648,384.495,303.407,379.259,303.407z"/> </g> </g> </g>
</svg>